<?xml version="1.0" encoding="UTF-8" standalone="no"?><!DOCTYPE svg PUBLIC "-//W3C//DTD SVG 1.1//EN" "http://www.w3.org/Graphics/SVG/1.1/DTD/svg11.dtd"><svg width="100%" height="100%" viewBox="0 0 177 42" version="1.1" xmlns="http://www.w3.org/2000/svg" xmlns:xlink="http://www.w3.org/1999/xlink" xml:space="preserve" xmlns:serif="http://www.serif.com/" style="fill-rule:evenodd;clip-rule:evenodd;stroke-linejoin:round;stroke-miterlimit:2;"><rect id="Artboard1" x="0" y="0" width="176.942" height="41.505" style="fill:none;"/><clipPath id="_clip1"><rect x="0" y="0" width="176.942" height="41.505"/></clipPath><g clip-path="url(#_clip1)"><g transform="matrix(0.486982,0,0,0.486982,-1.30992,-4.98523)"><text x="8.414px" y="63.77px" style="font-family:'Roboto-Black', 'Roboto';font-weight:900;font-size:64.155px;fill:#3987ff;">H<tspan x="56.058px " y="63.77px ">O</tspan>T</text><text x="143.264px" y="63.77px" style="font-family:'Roboto-Regular', 'Roboto';font-size:64.155px;fill:#c4ae6b;">K<tspan x="185.41px 233.634px 277.41px 325.634px " y="63.77px 63.77px 63.77px 63.77px ">HANA</tspan></text></g><text x="5.289px" y="38.808px" style="font-family:'Roboto-MediumItalic', 'Roboto';font-weight:500;font-style:italic;font-size:10.032px;fill:#c4ae6b;">S<tspan x="11.713px 18.485px 24.536px 31.441px 34.827px 41.854px 47.671px 50.969px 57.379px 63.43px 70.339px 73.315px 80.224px 83.523px 90.696px 93.853px 99.723px 106.75px 112.567px 115.542px 124.699px 131.726px 138.351px 145.035px 151.184px 157.643px 160.941px 168.399px " y="38.808px 38.808px 38.808px 38.808px 38.808px 38.808px 38.808px 38.808px 38.808px 38.808px 38.808px 38.808px 38.808px 38.808px 38.808px 38.808px 38.808px 38.808px 38.808px 38.808px 38.808px 38.808px 38.808px 38.808px 38.808px 38.808px 38.808px 38.808px ">PECIALIZED DIGITAL MARKETING</tspan></text></g></svg>